<svg xmlns="http://www.w3.org/2000/svg" xmlns:xlink="http://www.w3.org/1999/xlink" viewBox="0 0 1214.83 258.58"><defs><style>.cls-1{fill:#fff;}.cls-2{fill:url(#linear-gradient);}.cls-3{fill:url(#linear-gradient-2);}.cls-4{fill:url(#linear-gradient-3);}.cls-5{fill:url(#linear-gradient-4);}</style><linearGradient id="linear-gradient" y1="129.32" x2="282.36" y2="129.32" gradientUnits="userSpaceOnUse"><stop offset="0" stop-color="#4776e6"/><stop offset="1" stop-color="#8e54e9"/></linearGradient><linearGradient id="linear-gradient-2" x1="108.28" y1="29.19" x2="349.52" y2="29.19" xlink:href="#linear-gradient"/><linearGradient id="linear-gradient-3" x1="108.28" y1="229.39" x2="349.52" y2="229.39" xlink:href="#linear-gradient"/><linearGradient id="linear-gradient-4" x1="319.36" y1="130.28" x2="379.67" y2="130.28" gradientTransform="translate(422.68 -235.48) rotate(80.87)" xlink:href="#linear-gradient"/></defs><g id="Layer_2" data-name="Layer 2"><g id="LOGO"><path class="cls-1" d="M437.83,125.13v-.31c0-31.06,23.91-55.43,56.19-55.43,21.78,0,35.79,9.14,45.23,22.23L517,108.83c-6.09-7.61-13.1-12.48-23.3-12.48-14.92,0-25.43,12.64-25.43,28.17v.3c0,16,10.51,28.48,25.43,28.48,11.12,0,17.67-5.18,24.06-12.94L540,156.2c-10,13.85-23.61,24.06-47.21,24.06C462.35,180.26,437.83,157,437.83,125.13Z"/><path class="cls-1" d="M546,125.13v-.31c0-30.61,24.67-55.43,57.57-55.43s57.26,24.52,57.26,55.13v.3c0,30.61-24.67,55.44-57.57,55.44S546,155.74,546,125.13Zm84.67,0v-.31c0-15.38-11.11-28.78-27.41-28.78-16.14,0-27,13.1-27,28.48v.3c0,15.39,11.11,28.79,27.26,28.79S630.63,140.51,630.63,125.13Z"/><path class="cls-1" d="M676.17,71.52h27.57l43.86,56.35V71.52h29.24V178.13H751l-45.54-58.48v58.48H676.17Z"/><path class="cls-1" d="M795.72,71.52h27.57l43.86,56.35V71.52h29.24V178.13H870.5L825,119.65v58.48H795.72Z"/><path class="cls-1" d="M915.27,71.52H1001V96.65h-56.5v16.14h51.17v23.3H944.51V153h57.26v25.13h-86.5Z"/><path class="cls-1" d="M1012.44,125.13v-.31c0-31.06,23.91-55.43,56.19-55.43,21.78,0,35.79,9.14,45.23,22.23l-22.23,17.21c-6.09-7.61-13.1-12.48-23.3-12.48-14.93,0-25.43,12.64-25.43,28.17v.3c0,16,10.5,28.48,25.43,28.48,11.12,0,17.66-5.18,24.06-12.94l22.23,15.84c-10,13.85-23.6,24.06-47.21,24.06C1037,180.26,1012.44,157,1012.44,125.13Z"/><path class="cls-1" d="M1153.31,97.41h-32V71.52h93.5V97.41h-32v80.72h-29.54Z"/><path class="cls-2" d="M28.52,100.15l.57,0h.52c.35,0,.7,0,1,0h.18A29,29,0,0,1,48,107a68,68,0,0,0,43.83,15.58h40.8a69.55,69.55,0,0,0,53.27-24.92,53.37,53.37,0,0,1,33.26-20.81l.56-.1c.64-.11,1.29-.21,1.94-.3l1.18-.15,1-.11c.66-.06,1.33-.11,2-.15l.66,0c.7,0,1.4,0,2.12,0H229c.59,0,1.18,0,1.77,0l.58,0,.87.05c.63,0,1.25.08,1.87.14l.71.07c.65.07,1.31.16,2,.25l.64.1c.66.1,1.3.22,1.95.35l.66.13c.62.13,1.24.28,1.85.43l.73.18c.57.15,1.13.32,1.69.49l.84.25c.51.16,1,.33,1.51.51l1,.35,1.27.5c.39.15.77.3,1.15.47s.66.29,1,.45.91.4,1.35.62l.65.33c.54.28,1.09.55,1.62.85l.08,0a53.05,53.05,0,0,1,9.45,6.65l.46.4c.37.33.72.67,1.08,1s.53.49.79.75l.78.8c.35.35.69.71,1,1.07l.51.58c.42.47.83.94,1.23,1.42.09.11.17.22.26.32.49.59,1,1.19,1.42,1.8v0A53.31,53.31,0,0,1,229,182.72h-.17c-.75,0-1.5,0-2.24-.05l-.64,0c-.67,0-1.34-.09-2-.15l-1-.11-1.38-.17c-.56-.08-1.11-.16-1.67-.26l-.57-.1A53.38,53.38,0,0,1,185.89,161a70.48,70.48,0,0,0-54.16-24.87H91.86a71.16,71.16,0,0,0-44.38,16,29,29,0,0,1-18.22,6.39h-.07a29.18,29.18,0,0,1-.67-58.36Z"/><path class="cls-3" d="M322,58.33a29.07,29.07,0,0,1-20.49-6.79A68,68,0,0,0,257.73,36H200.07a67.92,67.92,0,0,0-43.82,15.58,29.19,29.19,0,1,1-.56-45.15,71.16,71.16,0,0,0,44.38,16h57.66a71.11,71.11,0,0,0,44.37-16A29.19,29.19,0,1,1,322,58.33Z"/><path class="cls-4" d="M137.47,200.2a29,29,0,0,1,18.22,6.39,71.1,71.1,0,0,0,44.38,16h57.66a71.05,71.05,0,0,0,44.37-16,29.19,29.19,0,1,1-.55,45.15,68,68,0,0,0-43.82-15.58H200.07a67.92,67.92,0,0,0-43.82,15.58,29.19,29.19,0,1,1-18.78-51.54Z"/><circle class="cls-5" cx="349.52" cy="130.28" r="30.15" transform="matrix(0.16, -0.99, 0.99, 0.16, 165.42, 454.69)"/></g></g></svg>